<svg height="30" viewBox="0 0 38 30" width="38" xmlns="http://www.w3.org/2000/svg"><g fill="none" fill-rule="evenodd"><path d="m7.71142578 20.4008789 13.37207032-11.52148437 2.8427734-6.06688667 3.7300578-1.45117973 3.3055868 2.85743367-1.8993328 13.5746952-6.0909016 3.4707032z" fill="#e9ebeb"/><path d="m24.4658773 29.9567107 1.3212813-.4810538c.3650675-.1329807.5531517-.5361.4201138-.9011675l-2.4163695-6.5349952c4.6705185-1.3675728 8.0841862-5.6765716 8.0841862-10.7894627v-4.68751315l5.6250158-.93750262c0-2.07127197-2.5183939-3.75001049-5.6250158-3.75001049h-1.4595835c-1.0300856-1.14315352-2.5060343-1.87500524-4.1654322-1.87500524-3.1066218 0-5.6250157 2.51839388-5.6250157 5.62501573v1.76720159l-19.91666644 15.66860768c-.39093127.293084-.70839126.9275462-.70839126 1.4162103 0 1.0265379.84200141 1.7730381 1.77132148 1.7730381.26247098 0 .5319801-.0597383.79101784-.1892858l7.12144935-3.5607247h5.65374053l2.6021648 7.0371062c.133038.3650675.5361572.5531517.9011675.4201138l1.3212814-.4810538c.3650675-.1329807.5531517-.5361.4201137-.9011675l-2.245852-6.0749987h2.2886531c.1119235 0 .2202994-.0135041.3316507-.0169945l2.6080013 7.0535285c.133038.3650675.5361572.5531517.9011676.4201138zm-3.8408196-10.2691557h-4.5551046l2.6560667-.7588026c2.8142817-.8044647 5.180297-2.7673608 6.4875021-5.3841741.2308852-.463487.0439454-1.0265951-.4194844-1.2579953-.463487-.2291114-1.0253935-.0428011-1.2580525.4194843-1.0728294 2.1480621-3.0140389 3.7593947-5.3267819 4.4191484l-8.49199758 2.4263832 12.64632898-9.94923517 1.074031-.84434745v-3.13300055c0-1.55096488 1.261543-2.81250787 2.8125079-2.81250787s2.8125079 1.26154299 2.8125079 2.81250787v5.62501577c0 4.6523796-3.785144 8.4375235-8.4375236 8.4375235zm5.6250157-12.65628534c.7763694 0 1.4062539-.62988457 1.4062539-1.40625393 0-.77694157-.6298845-1.40625393-1.4062539-1.40625393s-1.4062539.62931236-1.4062539 1.40625393c0 .77636936.6298845 1.40625393 1.4062539 1.40625393z" fill="#19c416" fill-rule="nonzero"/></g></svg>