<svg height="40" viewBox="0 0 40 40" width="40" xmlns="http://www.w3.org/2000/svg"><path d="m21.4640515 2.40288547c-.1820609-.30174023-.4133753-.53454409-.6775178-.68805531-.2609062-.15163039-.5512207-.22395605-.8402015-.21390353-.2895127.01007101-.5763011.10280976-.8305954.27379182-.2691614.18097836-.4990349.44678225-.67327.78585373l-16.72319055 32.63518462c-.34334097.7776102-.26501055 1.634741.09633038 2.2980014.17010644.3122393.40422168.5829246.69616568.7668035.2398061.1510402.51938604.2394383.82643409.2394383l33.4488568-.0047915c.2913779-.0228243.5547042-.1276418.7797261-.2875152.2873244-.2041381.5140177-.4931407.6729178-.8220127.3317826-.6866832.3714512-1.5543697-.0239628-2.3280336z" fill="none" stroke="#19c416" stroke-width="3"/></svg>