<svg height="30" viewBox="0 0 38 30" width="38" xmlns="http://www.w3.org/2000/svg"><g fill="none" fill-rule="evenodd" transform="translate(.000084)"><path d="m2.81249616 28.5976562v-21.09939929l11.11368894-4.68574905 8.5529785-1.1240313 13.1801758 2.99671199v8.98888375l-9.8774414 2.8498535-1.4794922 11.4726562h-3.3405762l-2.2031948-4.7814941h-9.4452427l-1.13378906 5.3825683z" fill="#e9ebeb"/><path d="m8.43748847 30c1.03534557 0 1.87499743-.8396519 1.87499743-1.8749974v-4.2679538c1.0828385.299377 3.8993973.9948908 7.4999898 0v4.2679538c0 1.0353455.8396518 1.8749974 1.8749974 1.8749974h4.6874936c1.0353456 0 1.8749974-.8396519 1.8749974-1.8749974v-11.2511291h8.4374885v5.1568152c0 .7757939-.6316558 1.4062481-1.4062481 1.4062481s-1.4062481-.6310836-1.4062481-1.4062481v-.4687494c0-.5179589-.4195398-.9374987-.9374987-.9374987h-.9374987c-.5179589 0-.9374987.4195398-.9374987.9374987v.2800366c0 2.2019547 1.6042878 4.1718807 3.7957139 4.3869149 2.5142636.2466771 4.6417746-1.7320037 4.6417746-4.1982021v-12.65743435c0-4.14195448-3.3579781-7.49998975-7.4999898-7.49998975h-3.583598c-.2132604-.22087067-.4371065-.43355883-.6861296-.62461768-1.5216616-1.16483529-3.4827757-1.53631-5.3800891-1.02304319-1.0570321.28713187-1.9851466.87655902-2.7239762 1.64708866h-6.3761815c-6.21327502.00057221-11.2499846 5.03728179-11.2499846 11.25118631v6.5630632c0 .5179589.41953983.9374987.93749872.9374987h.93749872v7.500562c0 1.0353455.83965187 1.8749974 1.87499744 1.8749974zm24.37496673-15.9386226h-7.9687391c-1.2925512 0-2.3437468-1.0511956-2.3437468-2.3437468v-2.18204203c-1.3271696-.26893579-2.4544683-.37502238-3.284736-1.7578101-.9627329-1.60897989-.4324716-4.21056172 1.8714498-4.83809763 1.7086005-.46348509 3.2531503.3709025 3.9058632 1.74607992h5.0074127c2.5845874 0 4.6874936 2.10296343 4.6874936 4.68812301v2.81249613c0 1.0353456-.8396519 1.8749975-1.8749974 1.8749975zm-25.31246545 13.1261264h-2.81249615v-9.3761316h-1.87499744v-4.688123c0-4.66054277 3.77751788-8.43806065 8.43748844-8.43806065h4.8773508c-.3580279 1.57790922-.1424215 3.17458673.6761733 4.53923559.6755438 1.12443766 1.6939521 1.99516026 2.8839644 2.49200476 0 2.3525588 1.5925576 4.3201388 3.7499949 4.9370889v10.533986h-2.8124962v-7.0259761c-7.0704936 1.9535038-6.5085894 1.828134-13.12498205 0zm23.43746795-17.81424945c.5179589 0 .9374987-.41953983.9374987-.93749872s-.4195398-.93749872-.9374987-.93749872-.9374987.41953983-.9374987.93749872.4195398.93749872.9374987.93749872z" fill="#f54d4b" fill-rule="nonzero" vector-effect="non-scaling-stroke"/></g></svg>