<svg height="40" viewBox="0 0 40 40" width="40" xmlns="http://www.w3.org/2000/svg"><path d="m35.7142857 3-31.54344834.00492984c-.32054473.02798722-.60676567.17493984-.81620264.39478311-.21964593.23055949-.35463472.54256736-.35463472.88600134l.00492984 31.54344831c.02798722.3205448.17493984.6067657.39478311.8162027.23055949.2196459.54256736.3546347.88600134.3546347l31.54344831-.0049298c.3205448-.0279873.6067657-.1749399.8162027-.3947832.2196459-.2305594.3546347-.5425673.3546347-.8860013l-.0049298-31.54344834c-.0279873-.32054472-.1749399-.60676567-.3947832-.81620264-.2305594-.21964593-.5425673-.35463472-.8860013-.35463472z" fill="none" stroke="#1771e4" stroke-width="3"/></svg>