<svg height="26" viewBox="0 0 42 26" width="42" xmlns="http://www.w3.org/2000/svg"><g fill="none" fill-rule="evenodd" transform="translate(0 .5)"><path d="m1.62402344 4.04882812 7.88183594 4.19482422 7.13134762-5.11865234c10.6846524-1.98472586 18.3703621.48744211 23.0571289 7.4165039.8275973 1.2235455.4440466 3.3206603-1.1506522 6.2913443-4.3864858 2.4606964-7.7307996 4.1414137-10.0329415 5.0421518s-4.8612705 1.5298071-7.6773858 1.887207l-11.32749702-6.9293588-7.88183594 3.9943002c1.17908246-3.5436198 1.76862369-6.3193359 1.76862369-8.3271484s-.58954123-4.82486979-1.76862369-8.45117188z" fill="#e9ebeb"/><path d="m23.4492445 25c10.0201925 0 18.2174683-9.4368617 18.2174683-12.5 0-3.06313833-8.1972758-12.5-18.2174683-12.5-6.7304611 0-11.9466146 4.1106542-14.3476486 6.42382304l-4.74478403-3.66535187c-.90560913-.69986979-2.16471355-.75912475-3.13930512-.14521281-.93167623.58790843-1.38740539 1.65303548-1.15954081 2.71288554l1.54622396 7.1738561-1.54622396 7.1738561c-.22786458 1.0598501.22786458 2.1249771 1.15954081 2.7128855.97459157.6132762 2.23369599.5533855 3.13930512-.144577l4.74478403-3.6659876c2.401034 2.3131688 7.6171875 6.423823 14.3476486 6.423823zm0-3.125c-5.2857717 0-10.2076848-3.3261617-13.0494435-6.4394633l-.97071334-1.061821-6.03644053 4.6634038 1.41010285-6.5371195-1.41010285-6.53711955 6.03644053 4.66340385.97071334-1.061821c2.8424581-3.1133016 7.7636718-6.4394633 13.0494435-6.4394633 8.1523896 0 14.8418427 7.8046799 15.0944392 9.3229294-.2525965 1.6230265-6.9420496 9.4270706-15.0944392 9.4270706zm5.7174683-7.2916667c1.1503855 0 2.0833333-.9329478 2.0833333-2.0833333s-.9329478-2.0833333-2.0833333-2.0833333c-1.1503856 0-2.0833333.9329478-2.0833333 2.0833333s.9329477 2.0833333 2.0833333 2.0833333z" fill="#1771e4" fill-rule="nonzero"/></g></svg>