<svg height="31" viewBox="0 0 43 31" width="43" xmlns="http://www.w3.org/2000/svg"><g fill="none" fill-rule="evenodd"><path d="m0 16.0714286c2.07398709-.9703754 3.23918891-1.6846611 3.49560547-2.1428572 2.18181405-3.898729 1.95804463-6.77995053 3.99902344-8.61303169 2.40077625-2.15622902 4.78619289-3.2931472 7.15624999-3.41075455 4.0957379-3.19891857 8.4869903-1.33384695 13.1737572 5.59521484 1.2413959 1.83531825 6.3334828-4.07773067 7.5325068-3.16455078 2.2185145 1.68962673 4.0924682 3.10161984 5.621861 4.23597935l-1.3361468 4.47007533-9.1785547 6.2913443 2.0200726 8.3170541c3.1296098-2.4120144 1.5763635-2.4120144-4.6597389 0-1.1280339.4363037-2.8253793-4.0168891-4.1522728-3.4643554-1.8204377.7580511-5.59624-2.2760352-9.0214844 0-1.2650361.8406018-1.7671553 2.2951124-3.9448242 4.6357422-1.69399446 1.8207606-3.1547692 1.8207606-4.38232423 0 1.55245476-3.1423576 1.94275424-5.4916414 1.17089844-7.0478516s-3.27006544-3.4568798-7.49462891-5.7020089z" fill="#e9ebeb"/><path d="m9.97637068 30c1.14839822 0 2.20982142-.6127494 2.78366092-1.6071429l1.8509347-3.2062421c2.7013288.6977626 6.531699.7285636 9.3502153 0l1.8508694 3.2062421c.5739048.9943935 1.6352626 1.6071429 2.7837262 1.6071429h2.4743435c1.1444092 0 2.2111293-.6160845 2.7836609-1.6071429.5725315-.9910583.5725315-2.2232273 0-3.2142857l-2.0544434-3.5578046c2.0524161-1.3915362 3.4285845-3.3502415 4.1183036-5.5493382h1.003091c3.7728228 0 6.7339652-3.5370745 5.7435608-7.46919907-.3482274-1.38283866-1.26297-2.56269183-2.422747-3.39104789-2.9886736-2.13481358-3.7399946-3.0683245-6.245139-3.0683245-2.6537868 0-4.9278913 1.57836914-5.7763235 3.8772583-2.7214051-3.37836129-6.9381932-6.02011544-11.5868487-6.02011544-1.0794721 0-10.96808299.79421997-14.25332207 10.6801496-.35960606 1.0807801-.30604771 2.2191729.12791225 3.2484218h-.36496844c-1.18325369 0-2.14285714.9596035-2.14285714 2.1428572v1.0714285c0 .7961819.44128418 1.5267727 1.14578247 1.8971035l5.45955113 2.8693935-1.88703264 3.2692173c-.57253157.9910584-.57253157 2.2232274 0 3.2142857.57253156.9910584 1.63859776 1.6071429 2.78372628 1.6071429zm-2.3022897-16.0714286c-1.50466918 0-2.61893136-1.1049107-2.24330357-2.234606 1.2790571-3.84979251 5.78639439-8.47967969 11.15027289-8.47967969h.0529044c5.3638132 0 9.8711505 4.62988718 11.1502075 8.47967969.2189419.6582641-.4480198 2.1643066-2.0584978 2.217865l-.3408848.0011146c-2.4850853.0048331-17.71069862.0156264-17.71069862.0156264zm2.30157035 12.8571429h-2.47565133l3.5618591-6.1660767-6.61677766-3.4767805h21.20622906c2.1448844 0 5.4107666-1.4598083 5.4201181-5.342429v-3.69774953c0-1.32856096.7794407-2.0463998 1.4585004-2.39397321 2.1066938-1.08012608 3.1546457.19886562 5.972508 2.21112932.7138498.51027571 1.1404201 1.33928572 1.1404201 2.21518382 0 1.501334-1.2220982 2.7221244-2.7227783 2.7221244h-3.1700788c-.7560294 6.0488891-5.0142779 6.8049185-6.4620536 7.3788234l3.7814549 6.549748h-2.4756513l-3.1305804-5.4274423c-4.4799368 1.4685059-7.2836739 1.6627285-12.3549107 0zm24.31006297-17.14285716c.5919538 0 1.0714286-.47947475 1.0714286-1.07142857s-.4794748-1.07142857-1.0714286-1.07142857-1.0714286.47947475-1.0714286 1.07142857.4794748 1.07142857 1.0714286 1.07142857z" fill="#ff7000" fill-rule="nonzero"/></g></svg>